<svg height="480pt" viewBox="0 -16 480 480" width="480pt" xmlns="http://www.w3.org/2000/svg" xmlns:xlink="http://www.w3.org/1999/xlink"><linearGradient id="a"><stop offset="0" stop-color="#e93e3a"/><stop offset=".112" stop-color="#ed683c"/><stop offset=".356" stop-color="#ed6a3c"/><stop offset=".703" stop-color="#f3903f"/><stop offset="1" stop-color="#fdc70c"/></linearGradient><linearGradient id="b" gradientUnits="userSpaceOnUse" x1="240" x2="240" xlink:href="#a" y1="461.568" y2="-53.936"/><linearGradient id="c" gradientUnits="userSpaceOnUse" x1="160" x2="160" xlink:href="#a" y1="461.568" y2="-53.936"/><linearGradient id="d" gradientUnits="userSpaceOnUse" x1="360" x2="360" xlink:href="#a" y1="461.568" y2="-53.936"/><linearGradient id="e" gradientUnits="userSpaceOnUse" x1="328" x2="328" xlink:href="#a" y1="461.568" y2="-53.936"/><linearGradient id="f" gradientUnits="userSpaceOnUse" x1="376" x2="376" xlink:href="#a" y1="461.568" y2="-53.936"/><linearGradient id="g" gradientUnits="userSpaceOnUse" x1="344" x2="344" xlink:href="#a" y1="461.568" y2="-53.936"/><linearGradient id="h" gradientUnits="userSpaceOnUse" x1="392" x2="392" xlink:href="#a" y1="461.568" y2="-53.936"/><path d="m440 0h-400c-22.082031.0273438-39.9726562 17.917969-40 40v256c.0273438 22.082031 17.917969 39.972656 40 40h152v64h-72c-13.253906 0-24 10.746094-24 24s10.746094 24 24 24h240c13.253906 0 24-10.746094 24-24s-10.746094-24-24-24h-72v-64h152c22.082031-.027344 39.972656-17.917969 40-40v-256c-.027344-22.082031-17.917969-39.9726562-40-40zm-400 16h400c13.253906 0 24 10.746094 24 24v232h-448v-232c0-13.253906 10.746094-24 24-24zm328 408c0 4.417969-3.582031 8-8 8h-240c-4.417969 0-8-3.582031-8-8s3.582031-8 8-8h240c4.417969 0 8 3.582031 8 8zm-96-24h-64v-64h64zm168-80h-400c-13.253906 0-24-10.746094-24-24v-8h448v8c0 13.253906-10.746094 24-24 24zm0 0" fill="url(#b)"/><path d="m192 160h-8v-1.367188c9.582031-3.402343 15.988281-12.464843 16-22.632812v-32c0-22.089844-17.910156-40-40-40s-40 17.910156-40 40v32c.011719 10.167969 6.417969 19.230469 16 22.632812v1.367188h-8c-30.910156.039062-55.960938 25.089844-56 56 0 8.835938 7.164062 16 16 16h144c8.835938 0 16-7.164062 16-16-.039062-30.910156-25.089844-55.960938-56-56zm-16-16c-4.417969 0-8 3.582031-8 8v16c.019531 1.933594.75 3.792969 2.046875 5.222656l-10.046875 13.433594-10.054688-13.410156c1.308594-1.433594 2.039063-3.304688 2.054688-5.246094v-16c0-4.417969-3.582031-8-8-8s-8-3.582031-8-8v-8.695312c12.746094-1.378907 24.542969-7.394532 33.144531-16.90625 4.164063 4.03125 9.269531 6.949218 14.855469 8.488281v17.113281c0 4.417969-3.582031 8-8 8zm-16-64c12.246094.039062 22.492188 9.3125 23.742188 21.496094-3.515626-2.316406-6.441407-5.421875-8.542969-9.070313-1.414063-2.925781-4.488281-4.675781-7.726563-4.402343-3.226562.230468-5.992187 2.382812-7.015625 5.449218-4.394531 9.835938-13.734375 16.550782-24.457031 17.589844v-7.0625c0-13.253906 10.746094-24 24-24zm-32 96h4l20 26.664062v13.335938h-32v-16h-16v16h-16c.027344-22.082031 17.917969-39.972656 40-40zm88 40v-16h-16v16h-32v-13.34375l19.953125-26.65625h4.046875c22.082031.027344 39.972656 17.917969 40 40zm0 0" fill="url(#c)"/><path d="m64 256h192c8.835938 0 16-7.164062 16-16v-192c0-8.835938-7.164062-16-16-16h-192c-8.835938 0-16 7.164062-16 16v192c0 8.835938 7.164062 16 16 16zm0-208h192v192h-192zm0 0" fill="url(#c)"/><path d="m304.550781 256h110.898438c9.132812-.011719 16.539062-7.417969 16.550781-16.550781v-190.898438c-.011719-9.132812-7.417969-16.539062-16.550781-16.550781h-110.898438c-9.132812.011719-16.539062 7.417969-16.550781 16.550781v190.898438c.011719 9.132812 7.417969 16.539062 16.550781 16.550781zm0-208 111.449219.550781v190.898438c0 .304687-.246094.550781-.550781.550781l-111.449219-.550781zm0 0" fill="url(#d)"/><path d="m232 296h16v16h-16zm0 0" fill="url(#b)"/><path d="m320 72h16v16h-16zm0 0" fill="url(#e)"/><path d="m352 72h48v16h-48zm0 0" fill="url(#f)"/><path d="m320 104h48v16h-48zm0 0" fill="url(#g)"/><path d="m384 104h16v16h-16zm0 0" fill="url(#h)"/><path d="m320 168h48v16h-48zm0 0" fill="url(#g)"/><path d="m384 168h16v16h-16zm0 0" fill="url(#h)"/><path d="m320 200h48v16h-48zm0 0" fill="url(#g)"/><path d="m384 200h16v16h-16zm0 0" fill="url(#h)"/><path d="m320 136h80v16h-80zm0 0" fill="url(#d)"/></svg>