<svg height="496pt" viewBox="-96 0 496 496" width="496pt" xmlns="http://www.w3.org/2000/svg" xmlns:xlink="http://www.w3.org/1999/xlink"><linearGradient id="a" gradientUnits="userSpaceOnUse" x1="152" x2="152" y1="496" y2="0"><stop offset="0" stop-color="#9f2fff"/><stop offset="1" stop-color="#0bb1d3"/></linearGradient><path d="m168 320c0-8.824219-7.175781-16-16-16-17.648438 0-32-14.351562-32-32 0-14.871094 10.230469-27.289062 24-30.863281v-17.136719h16v17.136719c13.769531 3.574219 24 15.992187 24 30.863281h-16c0-8.824219-7.175781-16-16-16s-16 7.175781-16 16 7.175781 16 16 16c17.648438 0 32 14.351562 32 32 0 14.871094-10.230469 27.289062-24 30.863281v17.136719h-16v-17.136719c-13.769531-3.574219-24-15.992187-24-30.863281h16c0 8.824219 7.175781 16 16 16s16-7.175781 16-16zm-120-24c0-57.34375 46.65625-104 104-104s104 46.65625 104 104-46.65625 104-104 104-104-46.65625-104-104zm16 0c0 48.519531 39.480469 88 88 88s88-39.480469 88-88-39.480469-88-88-88-88 39.480469-88 88zm179.632812-216 60.367188 68.992188v323.007812c0 13.230469-10.769531 24-24 24h-256c-13.230469 0-24-10.769531-24-24v-323.007812l60.367188-68.992188h39.898437c-2.777344-6.734375-4.265625-13.960938-4.265625-21.296875v-2.703125c0-30.871094 25.128906-56 56-56s56 25.128906 56 56v2.703125c0 7.335937-1.488281 14.5625-4.265625 21.296875zm-125.496093 0h67.734375l.433594-.71875c3.726562-6.21875 5.695312-13.335938 5.695312-20.578125v-2.703125c0-22.054688-17.945312-40-40-40s-40 17.945312-40 40v2.703125c0 7.242187 1.96875 14.359375 5.703125 20.578125zm169.863281 392v-312h-88v-16h78.367188l-42-48h-41.4375l-17.371094 28.945312c3.992187 5.335938 6.441406 11.886719 6.441406 19.054688 0 17.648438-14.351562 32-32 32s-32-14.351562-32-32 14.351562-32 32-32c4.632812 0 9.007812 1.03125 12.984375 2.808594l11.28125-18.808594h-108.632813l-42 48h78.367188v16h-88v312c0 4.414062 3.585938 8 8 8h256c4.414062 0 8-3.585938 8-8zm-120.273438-330.671875-4.070312 6.792969-13.71875-8.234375 6.671875-11.125c-1.464844-.449219-2.992187-.761719-4.609375-.761719-8.824219 0-16 7.175781-16 16s7.175781 16 16 16 16-7.175781 16-16c0-.910156-.121094-1.800781-.273438-2.671875zm-135.726562 322.671875h208v-16h-208zm224 0h16v-16h-16zm-224-32h240v-16h-240zm0 0" fill="url(#a)"/></svg>