<svg height="512" viewBox="0 0 64 64" width="512" xmlns="http://www.w3.org/2000/svg" xmlns:xlink="http://www.w3.org/1999/xlink"><linearGradient id="linear-gradient" gradientUnits="userSpaceOnUse" x1="-1.534" x2="65.757" y1="65.534" y2="-1.757"><stop offset="0" stop-color="#003f8a"/><stop offset=".518" stop-color="#00d7df"/><stop offset="1" stop-color="#006df0"/></linearGradient><linearGradient id="linear-gradient-2" x1="-25.034" x2="42.257" xlink:href="#linear-gradient" y1="42.034" y2="-25.257"/><linearGradient id="linear-gradient-3" x1="-20.534" x2="46.757" xlink:href="#linear-gradient" y1="46.534" y2="-20.757"/><linearGradient id="linear-gradient-4" x1="3.216" x2="70.507" xlink:href="#linear-gradient" y1="70.284" y2="2.993"/><path d="m58 1h-52a5.006 5.006 0 0 0 -5 5v52a5.006 5.006 0 0 0 5 5h52a5.006 5.006 0 0 0 5-5v-52a5.006 5.006 0 0 0 -5-5zm-27.079 60-.9-10.985.566-1.015h2.826l.566 1.015-.9 10.985zm4.164 0 .915-11.125a1 1 0 0 0 -.123-.568l-1-1.794a1 1 0 0 0 -.877-.513h-4a1 1 0 0 0 -.874.513l-1 1.794a1 1 0 0 0 -.123.568l.912 11.125h-15.915v-5a18.991 18.991 0 0 1 15.465-18.667 1 1 0 0 0 .152-1.924 10 10 0 1 1 6.766 0 1 1 0 0 0 .152 1.924 19.007 19.007 0 0 1 15.465 18.667v5zm25.915-3a3 3 0 0 1 -3 3h-5v-5a21.02 21.02 0 0 0 -14.441-19.951 12 12 0 1 0 -13.12 0 21 21 0 0 0 -14.439 19.951v5h-5a3 3 0 0 1 -3-3v-52a3 3 0 0 1 3-3h52a3 3 0 0 1 3 3z" fill="url(#linear-gradient)"/><path d="m16 5h-10a1 1 0 0 0 0 2h10a1 1 0 0 0 0-2z" fill="url(#linear-gradient-2)"/><path d="m21 5h-2a1 1 0 0 0 0 2h2a1 1 0 0 0 0-2z" fill="url(#linear-gradient-3)"/><path d="m34.97 38.757a1 1 0 0 0 -.97-.757h-4a1 1 0 0 0 -.97.757l-1 4a1 1 0 0 0 .415 1.075l3 2a1 1 0 0 0 1.11 0l3-2a1 1 0 0 0 .415-1.075zm-2.97 5.043-1.859-1.239.64-2.561h2.438l.64 2.559z" fill="url(#linear-gradient-4)"/></svg>