<?xml version="1.0"?>
<svg xmlns="http://www.w3.org/2000/svg" xmlns:xlink="http://www.w3.org/1999/xlink" viewBox="0 0 512 512" width="512" height="512"><linearGradient id="a" gradientUnits="userSpaceOnUse" x1="256" x2="256" y1="14.767" y2="489.422"><stop offset="0" stop-color="#00efd1"/><stop offset="1" stop-color="#00acea"/></linearGradient><linearGradient id="b" x1="217.459" x2="217.459" xlink:href="#a" y1="14.767" y2="489.422"/><path d="m402.2 215a10.177 10.177 0 0 0 6.791-2.836l77.029-71.353a10.377 10.377 0 0 0 2.521-11.222 10.222 10.222 0 0 0 -9.315-6.589h-95.391c-.1 0-.3-1.784-.632-2.625a10.042 10.042 0 0 0 -9.303-6.375h-153.008a10.046 10.046 0 0 0 -6.828 2.739l-6.652 6.261h-97.612a10.192 10.192 0 0 0 -6.791 2.851l-77.029 71.36a10.359 10.359 0 0 0 -2.521 11.211 10.211 10.211 0 0 0 9.315 6.578h95.226v40h-95.226a10 10 0 0 0 0 20h95.226v42h-95.226a10 10 0 0 0 0 20h95.226v41h-95.226a10 10 0 0 0 0 20h369.426a10.256 10.256 0 0 0 5.468-1.865l77.029-50.423a10.07 10.07 0 0 0 2.9-13.9 9.951 9.951 0 0 0 -13.841-2.7l-74.535 48.888h-98.221v-41h101.2a10.132 10.132 0 0 0 5.849-2.018l77.029-55.61a9.967 9.967 0 1 0 -11.7-16.141l-74.41 53.769h-97.968v-42h101.2a9.8 9.8 0 0 0 6.195-1.934l77.029-60.676a10.054 10.054 0 0 0 -12.39-15.836l-74.307 58.446h-97.727v-40zm-33.536-72h85.031l-55.411 52h-85.119l55.145-51.65c.117.004.232-.35.351-.35zm-237.828 52h-72.528l55.411-52h72.2l-54.629 51.165c-.161.148-.305-.165-.454.835zm153.408-1.057a10.584 10.584 0 0 0 -3.244 7.557v176.5h-133v-172.14l68.508-63.888 8.328-7.972h123.664z" fill="url(#a)"/><path d="m266.681 230a10 10 0 0 0 -10-10h-78.443a10 10 0 0 0 0 20h22.479c9.463 0 17.641 5 21.415 14h-43.894a10 10 0 0 0 0 20h43.917a30.735 30.735 0 0 1 -4.688 6.368 23.372 23.372 0 0 1 -16.75 6.632h-22.479a10.1 10.1 0 0 0 -6.868 17.409l56.12 53.052a9.993 9.993 0 1 0 13.737-14.516l-37.927-35.835a43.337 43.337 0 0 0 28.278-12.477 46.756 46.756 0 0 0 11.622-20.633h13.478a10 10 0 1 0 0-20h-13.489a43.365 43.365 0 0 0 -5.818-14h19.31a10 10 0 0 0 10-10z" fill="url(#b)"/></svg>
